<svg xmlns="http://www.w3.org/2000/svg" xmlns:xlink="http://www.w3.org/1999/xlink" width="151" height="83" viewBox="0 0 151 83">
  <defs>
    <clipPath id="clip-path">
      <rect id="Rectangle_412" data-name="Rectangle 412" width="126.784" height="78.229" fill="none"/>
    </clipPath>
    <clipPath id="clip-ceiba-logo-pass-2">
      <rect width="151" height="83"/>
    </clipPath>
  </defs>
  <g id="ceiba-logo-pass-2" clip-path="url(#clip-ceiba-logo-pass-2)">
    <rect width="151" height="83" fill="#fff"/>
    <g id="Group_73" data-name="Group 73" transform="translate(-13.525 -40.431)">
      <g id="Group_68" data-name="Group 68" transform="translate(18.525 42.431)">
        <g id="Group_67" data-name="Group 67" clip-path="url(#clip-path)">
          <path id="Path_656" data-name="Path 656" d="M88.856,50.3l.007,9.572L70.9,59.885l.015,18.333-15,.011L55.894,59.9l-17.966.013-.007-9.572,13.913-.01L41.99,40.5l6.763-6.773L58.6,43.554l-.01-13.913,9.572-.007.01,13.913L78,33.7l6.773,6.763-9.831,9.845Zm37.928,9.636a27.71,27.71,0,0,0-14.6-24.392c.03-.484.047-.971.047-1.463A23.348,23.348,0,0,0,84.571,11.141a25.747,25.747,0,0,0-42.4-.008A23.348,23.348,0,0,0,14.552,34.082c0,.491.017.979.047,1.463A27.71,27.71,0,0,0,0,59.937H9.6a18.081,18.081,0,0,1,16.986-18.05,13.675,13.675,0,0,1-2.433-7.8,13.922,13.922,0,0,1,.1-1.618A13.742,13.742,0,0,1,37.9,20.341c.093,0,.184.005.277.007a13.689,13.689,0,0,1,9.117,3.709,16.171,16.171,0,0,1,32.162.042,13.687,13.687,0,0,1,9.112-3.75c.109,0,.216-.008.326-.008a13.742,13.742,0,0,1,13.644,12.123,13.921,13.921,0,0,1,.1,1.618,13.675,13.675,0,0,1-2.433,7.8,18.081,18.081,0,0,1,16.986,18.05h9.6" fill="#10d25f"/>
        </g>
      </g>
      <circle id="Ellipse_24" data-name="Ellipse 24" cx="16.64" cy="16.64" r="16.64" transform="translate(126.885 80.271)" fill="#004a51"/>
      <path id="lock-solid_2_" data-name="lock-solid (2)" d="M5.111,5.111v1.7h5.679v-1.7a2.839,2.839,0,1,0-5.679,0Zm-2.271,1.7v-1.7a5.111,5.111,0,0,1,10.222,0v1.7h.568A2.274,2.274,0,0,1,15.9,9.086V15.9a2.274,2.274,0,0,1-2.271,2.271H2.271A2.274,2.274,0,0,1,0,15.9V9.086A2.274,2.274,0,0,1,2.271,6.814Z" transform="translate(135.643 88.153)" fill="#fff"/>
    </g>
  </g>
</svg>
