<svg xmlns="http://www.w3.org/2000/svg" xmlns:xlink="http://www.w3.org/1999/xlink" width="136" height="113" viewBox="0 0 136 113">
  <defs>
    <clipPath id="clip-path">
      <rect id="Rectangle_412" data-name="Rectangle 412" width="126.784" height="78.229" fill="none"/>
    </clipPath>
    <clipPath id="clip-ceiba-logo-pass">
      <rect width="136" height="113"/>
    </clipPath>
  </defs>
  <g id="ceiba-logo-pass" clip-path="url(#clip-ceiba-logo-pass)">
    <rect width="136" height="113" fill="#fff"/>
    <g id="Group_73" data-name="Group 73" transform="translate(-13.525 -8.911)">
      <g id="Group_68" data-name="Group 68" transform="translate(18.525 42.431)">
        <g id="Group_67" data-name="Group 67" clip-path="url(#clip-path)">
          <path id="Path_656" data-name="Path 656" d="M88.856,50.3l.007,9.572L70.9,59.885l.015,18.333-15,.011L55.894,59.9l-17.966.013-.007-9.572,13.913-.01L41.99,40.5l6.763-6.773L58.6,43.554l-.01-13.913,9.572-.007.01,13.913L78,33.7l6.773,6.763-9.831,9.845Zm37.928,9.636a27.71,27.71,0,0,0-14.6-24.392c.03-.484.047-.971.047-1.463A23.348,23.348,0,0,0,84.571,11.141a25.747,25.747,0,0,0-42.4-.008A23.348,23.348,0,0,0,14.552,34.082c0,.491.017.979.047,1.463A27.71,27.71,0,0,0,0,59.937H9.6a18.081,18.081,0,0,1,16.986-18.05,13.675,13.675,0,0,1-2.433-7.8,13.922,13.922,0,0,1,.1-1.618A13.742,13.742,0,0,1,37.9,20.341c.093,0,.184.005.277.007a13.689,13.689,0,0,1,9.117,3.709,16.171,16.171,0,0,1,32.162.042,13.687,13.687,0,0,1,9.112-3.75c.109,0,.216-.008.326-.008a13.742,13.742,0,0,1,13.644,12.123,13.921,13.921,0,0,1,.1,1.618,13.675,13.675,0,0,1-2.433,7.8,18.081,18.081,0,0,1,16.986,18.05h9.6" fill="#10d25f"/>
        </g>
      </g>
      <path id="lock-solid_2_" data-name="lock-solid (2)" d="M5.835,5.835V7.781h6.484V5.835a3.242,3.242,0,1,0-6.484,0ZM3.242,7.781V5.835a5.835,5.835,0,0,1,11.671,0V7.781h.648a2.6,2.6,0,0,1,2.594,2.594v7.781a2.6,2.6,0,0,1-2.594,2.594H2.594A2.6,2.6,0,0,1,0,18.155V10.374A2.6,2.6,0,0,1,2.594,7.781Z" transform="translate(72.84 10.911)" fill="#004a51"/>
    </g>
  </g>
</svg>
