<svg id="light-bulb" xmlns="http://www.w3.org/2000/svg" width="36.984" height="46.23" viewBox="0 0 36.984 46.23">
  <g id="Group_30" data-name="Group 30">
    <g id="Group_29" data-name="Group 29">
      <path id="Path_31" data-name="Path 31" d="M232.773,4.623a.771.771,0,0,0,.771-.77V.77A.77.77,0,0,0,232,.77V3.852A.77.77,0,0,0,232.773,4.623Z" transform="translate(-214.282)" fill="#32e1ac"/>
      <path id="Path_32" data-name="Path 32" d="M140.081,25.768l1.541,2.668a.771.771,0,1,0,1.34-.762l-.005-.009L141.415,25a.771.771,0,0,0-1.34.762Z" transform="translate(-131.117 -22.238)" fill="#32e1ac"/>
      <path id="Path_33" data-name="Path 33" d="M72.992,93.408l.009.005,2.668,1.541a.77.77,0,0,0,.779-1.329l-.009-.005-2.668-1.541a.77.77,0,1,0-.779,1.329Z" transform="translate(-70.241 -83.114)" fill="#32e1ac"/>
      <path id="Path_34" data-name="Path 34" d="M52.626,184.77a.771.771,0,0,0-.77-.77H48.773a.77.77,0,0,0,0,1.541h3.082A.771.771,0,0,0,52.626,184.77Z" transform="translate(-48.003 -166.279)" fill="#32e1ac"/>
      <path id="Path_35" data-name="Path 35" d="M75.678,260.073l-.009.005L73,261.619a.77.77,0,0,0,.761,1.34l.009-.005,2.668-1.541a.77.77,0,0,0-.761-1.34Z" transform="translate(-70.241 -234.934)" fill="#32e1ac"/>
      <path id="Path_36" data-name="Path 36" d="M367.432,261.624l-.009-.005-2.668-1.541a.771.771,0,1,0-.78,1.329l.009.005,2.668,1.541a.771.771,0,1,0,.78-1.329Z" transform="translate(-333.2 -234.934)" fill="#32e1ac"/>
      <path id="Path_37" data-name="Path 37" d="M387.855,184h-3.082a.77.77,0,1,0,0,1.541h3.082a.77.77,0,1,0,0-1.541Z" transform="translate(-351.642 -166.279)" fill="#32e1ac"/>
      <path id="Path_38" data-name="Path 38" d="M364.42,95.057a.771.771,0,0,0,.385-.1l2.668-1.541a.771.771,0,1,0-.762-1.34l-.009.005-2.668,1.541a.77.77,0,0,0,.385,1.438Z" transform="translate(-333.249 -83.114)" fill="#32e1ac"/>
      <path id="Path_39" data-name="Path 39" d="M308.383,28.719h0a.771.771,0,0,0,1.052-.283h0l1.541-2.668a.77.77,0,1,0-1.329-.78l-.005.009L308.1,27.666A.771.771,0,0,0,308.383,28.719Z" transform="translate(-282.957 -22.238)" fill="#32e1ac"/>
      <path id="Path_40" data-name="Path 40" d="M176.478,175.41a.771.771,0,0,0,.77-.771v-8.475h1.541a3.082,3.082,0,1,0-3.082-3.082v1.541h-1.541v-1.541a3.082,3.082,0,1,0-3.082,3.082h1.541v8.475a.77.77,0,1,0,1.541,0v-8.475h1.541v8.475A.77.77,0,0,0,176.478,175.41Zm.77-12.328a1.541,1.541,0,1,1,1.541,1.541h-1.541Zm-4.623,1.541h-1.541a1.541,1.541,0,1,1,1.541-1.541Z" transform="translate(-156.446 -144.59)" fill="#32e1ac"/>
      <path id="Path_41" data-name="Path 41" d="M125,64.016a12.328,12.328,0,0,0-8.413,21.843,2.3,2.3,0,0,1,.88,1.762v1.807A2.311,2.311,0,0,0,119,91.6v.912a2.3,2.3,0,0,0,.6,1.541,2.276,2.276,0,0,0,0,3.082,2.3,2.3,0,0,0,1.71,3.852.751.751,0,0,0,.633-1.184.816.816,0,0,0-.086-.133.8.8,0,0,0-.214-.14c-.022-.012-.045-.021-.068-.03a.817.817,0,0,0-.243-.049c-.008,0-.015,0-.022,0a.77.77,0,0,1,0-1.541H124.4a.77.77,0,1,0,0-1.541h-3.082a.77.77,0,0,1,0-1.541H124.4a.77.77,0,1,0,0-1.541h-3.082a.771.771,0,0,1-.77-.77v-.771H124.4a.77.77,0,1,0,0-1.541h-4.623a.771.771,0,0,1-.77-.77V87.621a3.83,3.83,0,0,0-1.445-2.955,10.787,10.787,0,0,1,7.364-19.108,10.911,10.911,0,0,1,10.261,10.706,10.724,10.724,0,0,1-4,8.447,3.819,3.819,0,0,0-1.391,3v1.717a.771.771,0,0,1-.77.77h-2.311a.77.77,0,1,0,0,1.541h1.541v.771a.771.771,0,0,1-.77.77h-.77a.77.77,0,1,0,0,1.541h.77a.77.77,0,0,1,0,1.541h-.77a.77.77,0,1,0,0,1.541h.77a.77.77,0,1,1,0,1.541h-3.852a.77.77,0,0,0,0,1.541h2.95a2.311,2.311,0,0,1-3.907.765.771.771,0,1,0-1.151,1.025,3.844,3.844,0,0,0,6.666-1.912,2.289,2.289,0,0,0,1.005-3.731,2.276,2.276,0,0,0,0-3.082,2.3,2.3,0,0,0,.6-1.541V91.6a2.311,2.311,0,0,0,1.541-2.17V87.71a2.316,2.316,0,0,1,.818-1.8,12.255,12.255,0,0,0,4.576-9.657A12.471,12.471,0,0,0,125,64.016Z" transform="translate(-105.905 -57.838)" fill="#4c33a5"/>
    </g>
  </g>
</svg>
